<svg width="122.879" height="103.609" xmlns="http://www.w3.org/2000/svg">

 <g>
  <title>background</title>
  <rect fill="none" id="canvas_background" height="402" width="582" y="-1" x="-1"/>
 </g>
 <g>
  <title>Layer 1</title>
  <g id="svg_1">
   <path fill="#ffffff" id="svg_2" d="m10.368,0l102.144,0c5.703,0 10.367,4.665 10.367,10.367l0,0c0,5.702 -4.664,10.368 -10.367,10.368l-102.144,0c-5.702,0 -10.368,-4.665 -10.368,-10.367l0,0c0,-5.703 4.666,-10.368 10.368,-10.368l0,0zm0,82.875l102.144,0c5.703,0 10.367,4.665 10.367,10.367l0,0c0,5.702 -4.664,10.367 -10.367,10.367l-102.144,0c-5.702,0 -10.368,-4.665 -10.368,-10.367l0,0c0,-5.702 4.666,-10.367 10.368,-10.367l0,0zm0,-41.437l102.144,0c5.703,0 10.367,4.665 10.367,10.367l0,0c0,5.702 -4.664,10.368 -10.367,10.368l-102.144,0c-5.702,0 -10.368,-4.666 -10.368,-10.368l0,0c0,-5.702 4.666,-10.367 10.368,-10.367l0,0z" clip-rule="evenodd" fill-rule="evenodd"/>
  </g>
 </g>
</svg>